<svg xmlns="http://www.w3.org/2000/svg" viewBox="0 0 1600 480" width="1600" height="480" font-family="Inter, 'Helvetica Neue', Arial, sans-serif">
<title>jev-seo: live SEO audits judged by Jev</title>
<rect width="1600" height="480" fill="#0b0b0b"/>
<circle cx="1080" cy="70" r="3" fill="#d45bb6"/><circle cx="1080" cy="122" r="6" fill="#3a3936"/><circle cx="1080" cy="174" r="3" fill="#3a3936"/><circle cx="1080" cy="226" r="6" fill="#d45bb6"/><circle cx="1080" cy="278" r="3" fill="#3a3936"/><circle cx="1080" cy="330" r="6" fill="#3a3936"/><circle cx="1080" cy="382" r="3" fill="#d45bb6"/><circle cx="1128" cy="70" r="4" fill="#3a3936"/><circle cx="1128" cy="122" r="7" fill="#3a3936"/><circle cx="1128" cy="174" r="4" fill="#d45bb6"/><circle cx="1128" cy="226" r="7" fill="#3a3936"/><circle cx="1128" cy="278" r="4" fill="#3a3936"/><circle cx="1128" cy="330" r="7" fill="#d45bb6"/><circle cx="1128" cy="382" r="4" fill="#3a3936"/><circle cx="1176" cy="70" r="5" fill="#3a3936"/><circle cx="1176" cy="122" r="8" fill="#d45bb6"/><circle cx="1176" cy="174" r="5" fill="#3a3936"/><circle cx="1176" cy="226" r="8" fill="#3a3936"/><circle cx="1176" cy="278" r="5" fill="#d45bb6"/><circle cx="1176" cy="330" r="8" fill="#3a3936"/><circle cx="1176" cy="382" r="5" fill="#3a3936"/><circle cx="1224" cy="70" r="6" fill="#d45bb6"/><circle cx="1224" cy="122" r="3" fill="#3a3936"/><circle cx="1224" cy="174" r="6" fill="#3a3936"/><circle cx="1224" cy="226" r="3" fill="#d45bb6"/><circle cx="1224" cy="278" r="6" fill="#3a3936"/><circle cx="1224" cy="330" r="3" fill="#3a3936"/><circle cx="1224" cy="382" r="6" fill="#d45bb6"/><circle cx="1272" cy="70" r="7" fill="#3a3936"/><circle cx="1272" cy="122" r="4" fill="#3a3936"/><circle cx="1272" cy="174" r="7" fill="#d45bb6"/><circle cx="1272" cy="226" r="4" fill="#3a3936"/><circle cx="1272" cy="278" r="7" fill="#3a3936"/><circle cx="1272" cy="330" r="4" fill="#d45bb6"/><circle cx="1272" cy="382" r="7" fill="#3a3936"/><circle cx="1320" cy="70" r="8" fill="#3a3936"/><circle cx="1320" cy="122" r="5" fill="#d45bb6"/><circle cx="1320" cy="174" r="8" fill="#3a3936"/><circle cx="1320" cy="226" r="5" fill="#3a3936"/><circle cx="1320" cy="278" r="8" fill="#d45bb6"/><circle cx="1320" cy="330" r="5" fill="#3a3936"/><circle cx="1320" cy="382" r="8" fill="#3a3936"/><circle cx="1368" cy="70" r="3" fill="#d45bb6"/><circle cx="1368" cy="122" r="6" fill="#3a3936"/><circle cx="1368" cy="174" r="3" fill="#3a3936"/><circle cx="1368" cy="226" r="6" fill="#d45bb6"/><circle cx="1368" cy="278" r="3" fill="#3a3936"/><circle cx="1368" cy="330" r="6" fill="#3a3936"/><circle cx="1368" cy="382" r="3" fill="#d45bb6"/><circle cx="1416" cy="70" r="4" fill="#3a3936"/><circle cx="1416" cy="122" r="7" fill="#3a3936"/><circle cx="1416" cy="174" r="4" fill="#d45bb6"/><circle cx="1416" cy="226" r="7" fill="#3a3936"/><circle cx="1416" cy="278" r="4" fill="#3a3936"/><circle cx="1416" cy="330" r="7" fill="#d45bb6"/><circle cx="1416" cy="382" r="4" fill="#3a3936"/><circle cx="1464" cy="70" r="5" fill="#3a3936"/><circle cx="1464" cy="122" r="8" fill="#d45bb6"/><circle cx="1464" cy="174" r="5" fill="#3a3936"/><circle cx="1464" cy="226" r="8" fill="#3a3936"/><circle cx="1464" cy="278" r="5" fill="#d45bb6"/><circle cx="1464" cy="330" r="8" fill="#3a3936"/><circle cx="1464" cy="382" r="5" fill="#3a3936"/>
<circle cx="1290" cy="245" r="138" fill="#0b0b0b"/>
<circle cx="1290" cy="245" r="118" fill="none" stroke="#2c2b29" stroke-width="26"/>
<path d="M 1290 127 A 118 118 0 1 1 1239.8 138.2" fill="none" stroke="#d45bb6" stroke-width="26" stroke-linecap="butt"/>
<text x="1290" y="267" font-size="72" font-weight="800" fill="#ffffff" text-anchor="middle">93</text>
<text x="1290" y="303" font-size="17" fill="#c3c2b7" text-anchor="middle">grade A · out of 100</text>
<text x="80" y="118" font-size="20" font-weight="700" letter-spacing="5" fill="#d45bb6">JEV SEO AUDIT</text>
<text x="76" y="232" font-size="112" font-weight="800" fill="#ffffff" letter-spacing="-3">jev-seo</text>
<text x="80" y="296" font-size="30" fill="#e1e0d9">One homepage URL in. A live SEO audit out,</text>
<text x="80" y="338" font-size="30" fill="#e1e0d9">judged by Jev, explained in plain language.</text>
<g font-size="19" font-weight="600">
  <rect x="80" y="382" width="148" height="44" rx="22" fill="#1d1c1b"/><text x="154" y="410" fill="#ffffff" text-anchor="middle">52 rules</text>
  <rect x="242" y="382" width="236" height="44" rx="22" fill="#d45bb6"/><text x="360" y="410" fill="#ffffff" text-anchor="middle">typed Jev judgments</text>
  <rect x="492" y="382" width="92" height="44" rx="22" fill="#1d1c1b"/><text x="538" y="410" fill="#ffffff" text-anchor="middle">PDF</text>
  <rect x="598" y="382" width="92" height="44" rx="22" fill="#1d1c1b"/><text x="644" y="410" fill="#ffffff" text-anchor="middle">XLSX</text>
  <rect x="704" y="382" width="80" height="44" rx="22" fill="#1d1c1b"/><text x="744" y="410" fill="#ffffff" text-anchor="middle">MD</text>
</g>
</svg>